HIERARCHY
ROOT hip
{
	OFFSET 0.00000 0.00000 0.00000
	CHANNELS 6 Xposition Yposition Zposition Zrotation Yrotation Xrotation 
	JOINT lhipjoint
	{
		OFFSET 0 0 0
		CHANNELS 3 Zrotation Yrotation Xrotation
		JOINT lfemur
		{
			OFFSET 1.38280 -1.96574 0.54427
			CHANNELS 3 Zrotation Yrotation Xrotation
			JOINT ltibia
			{
				OFFSET 2.72096 -7.47578 0.00000
				CHANNELS 3 Zrotation Yrotation Xrotation
				JOINT lfoot
				{
					OFFSET 2.73041 -7.50176 0.00000
					CHANNELS 3 Zrotation Yrotation Xrotation
					JOINT ltoes
					{
						OFFSET 0.16150 -0.44371 2.18031
						CHANNELS 3 Zrotation Yrotation Xrotation
						End Site
						{
							OFFSET 0.00000 -0.00000 1.12127
						}
					}
				}
			}
		}
	}
	JOINT rhipjoint
	{
		OFFSET 0 0 0
		CHANNELS 3 Zrotation Yrotation Xrotation
		JOINT rfemur
		{
			OFFSET -1.57224 -1.96575 0.54427
			CHANNELS 3 Zrotation Yrotation Xrotation
			JOINT rtibia
			{
				OFFSET -2.95935 -8.13076 0.00000
				CHANNELS 3 Zrotation Yrotation Xrotation
				JOINT rfoot
				{
					OFFSET -2.52345 -6.93311 0.00000
					CHANNELS 3 Zrotation Yrotation Xrotation
					JOINT rtoes
					{
						OFFSET -0.04475 -0.10171 1.86688
						CHANNELS 3 Zrotation Yrotation Xrotation
						End Site
						{
							OFFSET -0.00000 -0.00000 0.95157
						}
					}
				}
			}
		}
	}
	JOINT lowerback
	{
		OFFSET 0 0 0
		CHANNELS 3 Zrotation Yrotation Xrotation
		JOINT upperback
		{
			OFFSET 0.00669 2.07367 0.09104
			CHANNELS 3 Zrotation Yrotation Xrotation
			JOINT thorax
			{
				OFFSET -0.00664 2.06198 -0.04732
				CHANNELS 3 Zrotation Yrotation Xrotation
				JOINT lowerneck
				{
					OFFSET 0 0 0
					CHANNELS 3 Zrotation Yrotation Xrotation
					JOINT upperneck
					{
						OFFSET -0.00021 1.49948 0.16345
						CHANNELS 3 Zrotation Yrotation Xrotation
						JOINT head
						{
							OFFSET 0.06080 1.50567 -0.26702
							CHANNELS 3 Zrotation Yrotation Xrotation
							End Site
							{
								OFFSET 0.01726 1.56470 -0.11854
							}
						}
					}
				}
				JOINT lclavicle
				{
					OFFSET 0 0 0
					CHANNELS 3 Zrotation Yrotation Xrotation
					JOINT lhumerus
					{
						OFFSET 3.14993 0.82932 -0.22488
						CHANNELS 3 Zrotation Yrotation Xrotation
						JOINT lradius
						{
							OFFSET 5.68236 -0.00000 -0.00000
							CHANNELS 3 Zrotation Yrotation Xrotation
							JOINT lwrist
							{
								OFFSET 3.17112 -0.00000 0.00000
								CHANNELS 3 Zrotation Yrotation Xrotation
								JOINT lhand
								{
									OFFSET 0 0 0
									CHANNELS 3 Zrotation Yrotation Xrotation
									JOINT lfingers
									{
										OFFSET 0.63269 -0.00000 0.00000
										CHANNELS 3 Zrotation Yrotation Xrotation
										End Site
										{
											OFFSET 0.51009 -0.00000 0.00000
										}
									}
								}
								JOINT lthumb
								{
									OFFSET 0 0 0
									CHANNELS 3 Zrotation Yrotation Xrotation
									End Site
									{
										OFFSET 0.51788 -0.00000 0.51788
									}
								}
							}
						}
					}
				}
				JOINT rclavicle
				{
					OFFSET 0 0 0
					CHANNELS 3 Zrotation Yrotation Xrotation
					JOINT rhumerus
					{
						OFFSET -3.10571 0.91279 -0.33334
						CHANNELS 3 Zrotation Yrotation Xrotation
						JOINT rradius
						{
							OFFSET -5.87120 -0.00000 -0.00000
							CHANNELS 3 Zrotation Yrotation Xrotation
							JOINT rwrist
							{
								OFFSET -3.37589 -0.00000 0.00000
								CHANNELS 3 Zrotation Yrotation Xrotation
								JOINT rhand
								{
									OFFSET 0 0 0
									CHANNELS 3 Zrotation Yrotation Xrotation
									JOINT rfingers
									{
										OFFSET -0.60326 -0.00000 0.00000
										CHANNELS 3 Zrotation Yrotation Xrotation
										End Site
										{
											OFFSET -0.48636 -0.00000 0.00000
										}
									}
								}
								JOINT rthumb
								{
									OFFSET 0 0 0
									CHANNELS 3 Zrotation Yrotation Xrotation
									End Site
									{
										OFFSET -0.49379 -0.00000 0.49379
									}
								}
							}
						}
					}
				}
			}
		}
	}
}
MOTION
Frames: 6
Frame Time: 0.033333
20.3927 15.7909 -0.5475 201.9820 -92.3103 -571.4870 0.0000 -0.0000 0.0000 -14.6289 -0.8399 -42.9759 10.7533 17.8123 61.9779 0.4979 -1.5120 -12.8925 0.0144 -0.7758 -2.1320 0.0000 -0.0000 0.0000 12.2832 6.1949 -39.7879 -10.0193 -17.4207 59.5530 -0.0677 4.0465 -5.0636 -6.3776 -14.7845 46.4788 -0.8379 2.0556 12.4623 -1.4102 1.9205 12.3299 -1.1858 0.6359 6.1032 2.7749 0.4948 -3.5961 -0.9800 0.5274 -2.1666 -0.7489 0.2309 -0.0589 -0.0000 -0.0000 0.0000 -79.7894 -19.6363 47.6041 32.9666 -43.3043 -13.3992 -0.0000 0.0000 -24.1286 26.0519 42.1882 18.1750 -7.1250 0.0000 -0.0000 -19.6553 74.4762 -13.8045 -0.0000 -0.0000 0.0000 -27.5795 43.7481 -36.8082 -110.7018 58.3171 -77.8270 0.0000 -0.0000 -23.9886 -20.3065 33.1848 -11.4497 7.1250 -0.0000 -0.0000 6.6168 4.7027 7.1835
20.3903 15.7914 -0.5499 200.6450 -92.4198 -570.1300 0.0000 -0.0000 0.0000 -14.6387 -0.9035 -42.9809 10.7478 17.8094 61.9598 0.4911 -1.5424 -12.7935 0.0129 -0.7325 -2.0130 0.0000 -0.0000 0.0000 12.2806 6.0382 -39.8351 -10.0231 -17.4228 59.5657 -0.0659 4.0655 -5.0189 -6.3773 -14.7843 46.4780 -0.8075 2.1154 12.3924 -1.4670 2.0043 12.3746 -1.2665 0.6823 6.1964 2.8090 0.5439 -3.5437 -1.0433 0.5932 -2.1873 -0.7737 0.2637 -0.0722 0.0000 -0.0000 0.0000 -79.7178 -19.8941 47.7604 32.8877 -43.2435 -13.3450 -0.0000 0.0000 -24.0082 25.9937 42.0815 18.0964 -7.1250 0.0000 -0.0000 -19.5284 74.3604 -13.6659 0.0000 -0.0000 0.0000 -27.8611 43.9572 -37.1820 -111.4423 58.1894 -78.4567 0.0000 -0.0000 -24.2119 -20.3917 33.1638 -11.4943 7.1250 -0.0000 -0.0000 6.5665 4.6991 7.1277
20.3879 15.7936 -0.5522 199.5260 -92.5531 -568.9990 0.0000 -0.0000 0.0000 -14.6671 -0.9942 -42.9540 10.7358 17.8034 61.9207 0.4850 -1.5758 -12.7050 0.0098 -0.6406 -1.7605 0.0000 -0.0000 0.0000 12.2613 5.8596 -39.8679 -10.0249 -17.4238 59.5715 -0.0644 4.0822 -4.9830 -6.3739 -14.7812 46.4645 -0.7895 2.1745 12.3123 -1.5219 2.0868 12.4223 -1.3379 0.7271 6.2982 2.8311 0.5823 -3.4755 -1.1114 0.6454 -2.2238 -0.7982 0.2896 -0.0931 0.0000 -0.0000 0.0000 -79.6590 -20.1501 47.9254 32.8163 -43.1884 -13.2962 -0.0000 0.0000 -23.8906 25.9382 41.9740 18.0197 -7.1250 0.0000 -0.0000 -19.3984 74.2446 -13.5258 0.0000 -0.0000 0.0000 -28.1509 44.1409 -37.5300 -112.1452 58.0634 -79.0536 0.0000 -0.0000 -24.4207 -20.4925 33.1660 -11.5553 7.1250 -0.0000 -0.0000 6.5107 4.7223 7.0689
20.3857 15.7969 -0.5546 198.5430 -92.6979 -568.0050 0.0000 -0.0000 0.0000 -14.7025 -1.1037 -42.9099 10.7188 17.7947 61.8649 0.4801 -1.6061 -12.6315 0.0069 -0.5368 -1.4750 0.0000 -0.0000 0.0000 12.2359 5.6721 -39.8930 -10.0249 -17.4238 59.5715 -0.0632 4.0953 -4.9559 -6.3695 -14.7771 46.4472 -0.7891 2.2395 12.2444 -1.5675 2.1763 12.4575 -1.3903 0.7741 6.3787 2.8666 0.6048 -3.3826 -1.2018 0.6768 -2.2664 -0.8323 0.3051 -0.1201 0.0000 -0.0000 0.0000 -79.6139 -20.3862 48.1206 32.7530 -43.1393 -13.2528 -0.0000 0.0000 -23.7907 25.8944 41.8616 17.9502 -7.1250 0.0000 -0.0000 -19.2452 74.1287 -13.3697 0.0000 -0.0000 0.0000 -28.4251 44.3041 -37.8232 -112.8307 57.9358 -79.6350 0.0000 -0.0000 -24.6389 -20.5658 33.1516 -11.5949 7.1250 -0.0000 -0.0000 6.4679 4.7231 7.0218
20.3841 15.8005 -0.5572 197.7350 -92.8396 -567.1830 0.0000 -0.0000 0.0000 -14.7394 -1.2184 -42.8680 10.6996 17.7849 61.8020 0.4761 -1.6262 -12.5722 0.0051 -0.4633 -1.2731 0.0000 -0.0000 0.0000 12.2099 5.4895 -39.9217 -10.0237 -17.4232 59.5677 -0.0621 4.1015 -4.9261 -6.3695 -14.7771 46.4472 -0.8073 2.3150 12.2031 -1.6019 2.2787 12.4722 -1.4217 0.8262 6.4210 2.9201 0.6133 -3.2780 -1.3152 0.6891 -2.3007 -0.8769 0.3111 -0.1467 -0.0000 0.0000 0.0000 -79.5782 -20.5918 48.3616 32.7057 -43.1026 -13.2206 -0.0000 0.0000 -23.7272 25.9146 41.7673 17.9344 -7.1250 0.0000 -0.0000 -19.0381 74.0518 -13.1922 -0.0000 0.0000 0.0000 -28.6787 44.4559 -38.0593 -113.5060 57.8057 -80.2068 0.0000 -0.0000 -24.8940 -20.5683 33.1173 -11.5860 7.1250 -0.0000 -0.0000 6.4615 4.6890 7.0113
20.3827 15.8034 -0.5598 196.9920 -92.9661 -566.4160 0.0000 -0.0000 0.0000 -14.7675 -1.3293 -42.8438 10.6812 17.7755 61.7419 0.4725 -1.6343 -12.5217 0.0046 -0.4385 -1.2049 0.0000 -0.0000 0.0000 12.1927 5.3205 -39.9624 -10.0217 -17.4221 59.5610 -0.0606 4.1015 -4.8851 -6.3759 -14.7830 46.4724 -0.8268 2.3984 12.1829 -1.6298 2.3917 12.4710 -1.4467 0.8838 6.4339 2.9803 0.6155 -3.1921 -1.4316 0.6923 -2.3164 -0.9237 0.3127 -0.1648 0.0000 0.0000 0.0000 -79.5387 -20.7715 48.6405 32.6826 -43.0846 -13.2048 -0.0000 0.0000 -23.7027 26.0349 41.7329 18.0128 -7.1250 0.0000 -0.0000 -18.8034 74.0646 -13.0319 0.0000 0.0000 0.0000 -28.9208 44.6004 -38.2668 -114.1746 57.6723 -80.7722 0.0000 -0.0000 -25.2050 -20.4657 33.0847 -11.5149 7.1250 -0.0000 -0.0000 6.5138 4.6346 7.0631
